<svg width="113" height="18" viewBox="0 0 113 18" fill="none" xmlns="http://www.w3.org/2000/svg">
<path d="M2.41406 17.4141C2.29427 17.4141 2.13802 17.3984 1.94531 17.3672C1.7526 17.3411 1.60417 17.3151 1.5 17.2891L1.65625 16.0781C1.74479 16.0885 1.86719 16.0964 2.02344 16.1016C2.17969 16.112 2.28646 16.1172 2.34375 16.1172C2.67188 16.1172 2.9375 15.9922 3.14062 15.7422C3.34896 15.4922 3.54167 15.151 3.71875 14.7188L4.08594 13.8281L1.09375 6.66406L0.1875 6.53906V5.54688H3.73438V6.53906L2.71094 6.69531L4.35938 10.9219L4.75781 12.0234H4.80469L6.75781 6.69531L5.67969 6.53906V5.54688H9.15625V6.53906L8.28125 6.66406L4.95312 15.2969C4.79688 15.7031 4.60677 16.0651 4.38281 16.3828C4.16406 16.7057 3.89323 16.9583 3.57031 17.1406C3.2526 17.3229 2.86719 17.4141 2.41406 17.4141ZM13.5391 14.1641C12.7578 14.1641 12.0781 13.987 11.5 13.6328C10.9219 13.2734 10.474 12.776 10.1562 12.1406C9.84375 11.5052 9.6875 10.7708 9.6875 9.9375V9.59375C9.6875 8.79167 9.85156 8.07552 10.1797 7.44531C10.513 6.8099 10.9531 6.3099 11.5 5.94531C12.0521 5.57552 12.6536 5.39062 13.3047 5.39062C14.0651 5.39062 14.7005 5.54688 15.2109 5.85938C15.7266 6.17188 16.1146 6.61198 16.375 7.17969C16.6354 7.74219 16.7656 8.40625 16.7656 9.17188V10.1328H11.2812L11.2578 10.1719C11.2682 10.7135 11.362 11.1953 11.5391 11.6172C11.7214 12.0339 11.9818 12.362 12.3203 12.6016C12.6589 12.8411 13.0651 12.9609 13.5391 12.9609C14.0599 12.9609 14.5156 12.888 14.9062 12.7422C15.3021 12.5911 15.6432 12.3854 15.9297 12.125L16.5312 13.125C16.2292 13.4167 15.8281 13.6641 15.3281 13.8672C14.8333 14.0651 14.237 14.1641 13.5391 14.1641ZM11.3281 8.92969H15.2266V8.72656C15.2266 8.32031 15.1536 7.95833 15.0078 7.64062C14.8672 7.31771 14.6536 7.0651 14.3672 6.88281C14.0859 6.69531 13.7318 6.60156 13.3047 6.60156C12.9609 6.60156 12.6484 6.70312 12.3672 6.90625C12.0859 7.10417 11.8542 7.375 11.6719 7.71875C11.4896 8.0625 11.3698 8.45312 11.3125 8.89062L11.3281 8.92969ZM17.8281 17.4141C17.6615 17.4141 17.5104 17.401 17.375 17.375C17.2396 17.3542 17.099 17.3203 16.9531 17.2734L17.0547 16.1016C17.1276 16.1276 17.25 16.151 17.4219 16.1719C17.599 16.1927 17.7344 16.2031 17.8281 16.2031C18.1354 16.2031 18.3776 16.0677 18.5547 15.7969C18.737 15.5312 18.8281 15.1641 18.8281 14.6953V6.75781L17.5547 6.53906V5.54688H20.3672V14.6953C20.3672 15.5651 20.1432 16.2344 19.6953 16.7031C19.2474 17.1771 18.625 17.4141 17.8281 17.4141ZM18.75 3.46094V1.8125H20.3672V3.46094H18.75ZM25.7969 14.1641C24.8802 14.1641 24.1641 13.8698 23.6484 13.2812C23.1328 12.6927 22.875 11.776 22.875 10.5312V6.75781L21.9062 6.53906V5.54688H22.875H24.4141V10.5469C24.4141 11.4479 24.5469 12.0677 24.8125 12.4062C25.0781 12.7448 25.4922 12.9141 26.0547 12.9141C26.6016 12.9141 27.0521 12.8047 27.4062 12.5859C27.7656 12.362 28.0365 12.0469 28.2188 11.6406V6.75781L27.0859 6.53906V5.54688H28.2188H29.7578V12.7969L30.7266 13.0156V14H28.375L28.2734 12.75C28.0078 13.2031 27.6641 13.5521 27.2422 13.7969C26.8255 14.0417 26.3438 14.1641 25.7969 14.1641ZM31.8125 14V13.0156L33.0859 12.7969V6.75781L31.8125 6.53906V5.54688H34.4609L34.5703 6.80469C34.8516 6.35677 35.2031 6.01042 35.625 5.76562C36.0521 5.51562 36.5365 5.39062 37.0781 5.39062C37.9896 5.39062 38.6953 5.65885 39.1953 6.19531C39.6953 6.72656 39.9453 7.54948 39.9453 8.66406V12.7969L41.2188 13.0156V14H37.1328V13.0156L38.4062 12.7969V8.69531C38.4062 7.95052 38.2578 7.42188 37.9609 7.10938C37.6693 6.79688 37.2214 6.64062 36.6172 6.64062C36.1745 6.64062 35.7812 6.7474 35.4375 6.96094C35.099 7.17448 34.8281 7.46615 34.625 7.83594V12.7969L35.8984 13.0156V14H31.8125ZM42.2578 14V13.0156L43.5312 12.7969V6.75781L42.2578 6.53906V5.54688H45.0703V12.7969L46.3438 13.0156V14H42.2578ZM43.4531 3.46094V1.8125H45.0703V3.46094H43.4531ZM50.1406 14.1641C49.2604 14.1641 48.5911 13.9505 48.1328 13.5234C47.6745 13.0911 47.4453 12.4844 47.4453 11.7031C47.4453 11.1667 47.5911 10.7005 47.8828 10.3047C48.1797 9.90365 48.6068 9.59375 49.1641 9.375C49.7214 9.15104 50.388 9.03906 51.1641 9.03906H52.6719V8.21094C52.6719 7.70052 52.5156 7.30469 52.2031 7.02344C51.8958 6.74219 51.4609 6.60156 50.8984 6.60156C50.5443 6.60156 50.237 6.64583 49.9766 6.73438C49.7161 6.81771 49.4792 6.9349 49.2656 7.08594L49.1016 8.26562H47.9141V6.32812C48.2943 6.02083 48.737 5.78906 49.2422 5.63281C49.7474 5.47135 50.3073 5.39062 50.9219 5.39062C51.9479 5.39062 52.7526 5.63542 53.3359 6.125C53.9193 6.61458 54.2109 7.3151 54.2109 8.22656V12.2969C54.2109 12.4062 54.2109 12.513 54.2109 12.6172C54.2161 12.7214 54.224 12.8255 54.2344 12.9297L55.0547 13.0156V14H52.8438C52.7969 13.7708 52.7604 13.5651 52.7344 13.3828C52.7083 13.2005 52.6901 13.0182 52.6797 12.8359C52.3828 13.2161 52.0104 13.5339 51.5625 13.7891C51.1198 14.0391 50.6458 14.1641 50.1406 14.1641ZM50.3672 12.875C50.8776 12.875 51.3438 12.7526 51.7656 12.5078C52.1875 12.263 52.4896 11.9688 52.6719 11.625V10.0938H51.1094C50.401 10.0938 49.8698 10.263 49.5156 10.6016C49.1615 10.9401 48.9844 11.3177 48.9844 11.7344C48.9844 12.1042 49.099 12.388 49.3281 12.5859C49.5573 12.7786 49.9036 12.875 50.3672 12.875ZM56.25 14V13.0156L57.5234 12.7969V6.75781L56.25 6.53906V5.54688H58.8984L59.0078 6.80469C59.2891 6.35677 59.6406 6.01042 60.0625 5.76562C60.4896 5.51562 60.974 5.39062 61.5156 5.39062C62.4271 5.39062 63.1328 5.65885 63.6328 6.19531C64.1328 6.72656 64.3828 7.54948 64.3828 8.66406V12.7969L65.6562 13.0156V14H61.5703V13.0156L62.8438 12.7969V8.69531C62.8438 7.95052 62.6953 7.42188 62.3984 7.10938C62.1068 6.79688 61.6589 6.64062 61.0547 6.64062C60.612 6.64062 60.2188 6.7474 59.875 6.96094C59.5365 7.17448 59.2656 7.46615 59.0625 7.83594V12.7969L60.3359 13.0156V14H56.25ZM70.1562 14.9766L74.9062 2.625H76.2031L71.4609 14.9766H70.1562ZM85.6484 14.1641C85.0964 14.1641 84.6172 14.0599 84.2109 13.8516C83.8047 13.638 83.4661 13.3255 83.1953 12.9141L83.0547 14H81.7266V3.02344L80.4531 2.80469V1.8125H83.2656V6.54688C83.5312 6.17188 83.8594 5.88542 84.25 5.6875C84.6458 5.48958 85.1068 5.39062 85.6328 5.39062C86.3307 5.39062 86.9245 5.58073 87.4141 5.96094C87.9089 6.33594 88.2865 6.86458 88.5469 7.54688C88.8125 8.22917 88.9453 9.02344 88.9453 9.92969V10.0938C88.9453 10.9062 88.8125 11.6172 88.5469 12.2266C88.2865 12.8359 87.9089 13.3125 87.4141 13.6562C86.9245 13.9948 86.3359 14.1641 85.6484 14.1641ZM85.2578 12.9141C85.9818 12.9141 86.5182 12.6562 86.8672 12.1406C87.2214 11.625 87.3984 10.9427 87.3984 10.0938V9.92969C87.3984 9.27865 87.3203 8.70833 87.1641 8.21875C87.0078 7.72396 86.7708 7.33854 86.4531 7.0625C86.1354 6.78125 85.7318 6.64062 85.2422 6.64062C84.7682 6.64062 84.3672 6.75521 84.0391 6.98438C83.7161 7.21354 83.4583 7.52083 83.2656 7.90625V11.6406C83.4583 12.0312 83.7188 12.3411 84.0469 12.5703C84.3802 12.7995 84.7839 12.9141 85.2578 12.9141ZM89.9531 14V13.0156L91.2266 12.7969V3.02344L89.9531 2.80469V1.8125H92.7656V12.7969L94.0391 13.0156V14H89.9531ZM98.8047 14.1641C98.0234 14.1641 97.349 13.9818 96.7812 13.6172C96.2188 13.2474 95.7839 12.7396 95.4766 12.0938C95.1693 11.4427 95.0156 10.7005 95.0156 9.86719V9.69531C95.0156 8.86198 95.1693 8.1224 95.4766 7.47656C95.7839 6.82552 96.2188 6.3151 96.7812 5.94531C97.349 5.57552 98.0182 5.39062 98.7891 5.39062C99.5703 5.39062 100.242 5.57552 100.805 5.94531C101.372 6.3151 101.81 6.82292 102.117 7.46875C102.424 8.11458 102.578 8.85677 102.578 9.69531V9.86719C102.578 10.7057 102.424 11.4505 102.117 12.1016C101.81 12.7474 101.375 13.2526 100.812 13.6172C100.25 13.9818 99.5807 14.1641 98.8047 14.1641ZM98.8047 12.9609C99.2943 12.9609 99.7031 12.8281 100.031 12.5625C100.365 12.2917 100.615 11.9245 100.781 11.4609C100.953 10.9922 101.039 10.4609 101.039 9.86719V9.69531C101.039 9.10156 100.953 8.57292 100.781 8.10938C100.615 7.64062 100.365 7.27344 100.031 7.00781C99.6979 6.73698 99.2839 6.60156 98.7891 6.60156C98.2995 6.60156 97.888 6.73698 97.5547 7.00781C97.2214 7.27344 96.9714 7.64062 96.8047 8.10938C96.638 8.57292 96.5547 9.10156 96.5547 9.69531V9.86719C96.5547 10.4609 96.638 10.9922 96.8047 11.4609C96.9714 11.9245 97.2214 12.2917 97.5547 12.5625C97.8932 12.8281 98.3099 12.9609 98.8047 12.9609ZM107.758 17.4141C107.352 17.4141 106.911 17.3568 106.438 17.2422C105.964 17.1328 105.547 16.9818 105.188 16.7891L105.586 15.5938C105.872 15.7448 106.211 15.8698 106.602 15.9688C106.992 16.0677 107.372 16.1172 107.742 16.1172C108.43 16.1172 108.932 15.9245 109.25 15.5391C109.573 15.1536 109.734 14.6042 109.734 13.8906V13.0859C109.458 13.4401 109.128 13.7083 108.742 13.8906C108.357 14.0729 107.914 14.1641 107.414 14.1641C106.727 14.1641 106.133 13.9948 105.633 13.6562C105.133 13.3125 104.747 12.8359 104.477 12.2266C104.211 11.612 104.078 10.901 104.078 10.0938V9.92969C104.078 9.02344 104.211 8.22917 104.477 7.54688C104.747 6.86458 105.133 6.33594 105.633 5.96094C106.133 5.58073 106.732 5.39062 107.43 5.39062C107.961 5.39062 108.427 5.49479 108.828 5.70312C109.229 5.91146 109.565 6.21354 109.836 6.60938L109.977 5.54688H111.273V13.8906C111.273 14.6198 111.135 15.2474 110.859 15.7734C110.589 16.2995 110.19 16.7031 109.664 16.9844C109.143 17.2708 108.508 17.4141 107.758 17.4141ZM107.797 12.9141C108.26 12.9141 108.648 12.8099 108.961 12.6016C109.273 12.388 109.531 12.0885 109.734 11.7031V7.8125C109.536 7.45312 109.279 7.16927 108.961 6.96094C108.643 6.7474 108.26 6.64062 107.812 6.64062C107.323 6.64062 106.914 6.78125 106.586 7.0625C106.263 7.34375 106.021 7.73177 105.859 8.22656C105.698 8.71615 105.617 9.28385 105.617 9.92969V10.0938C105.617 10.9427 105.797 11.625 106.156 12.1406C106.516 12.6562 107.062 12.9141 107.797 12.9141ZM111.039 6.80469L110.438 5.54688H112.32V6.53125L111.039 6.80469Z" fill="#191A1E"/>
</svg>
